<svg width="32" height="32" viewBox="0 0 32 32" fill="none" xmlns="http://www.w3.org/2000/svg">
<path fill-rule="evenodd" clip-rule="evenodd" d="M15.9494 0.485352C18.834 0.518268 21.4399 1.22721 23.7672 2.61218C26.0667 3.9695 27.9796 5.89407 29.3229 8.20184C30.6994 10.5432 31.4041 13.1649 31.4369 16.067C31.3552 20.0379 30.1027 23.4293 27.6796 26.2415C25.2565 29.0536 22.153 30.7933 18.9404 31.4603V20.3273H21.9777L22.6646 15.9523H18.0654V13.0868C18.0399 12.4927 18.2277 11.9092 18.595 11.4416C18.9628 10.9727 19.6105 10.7263 20.5381 10.7023H23.3154V6.86989C23.2756 6.85707 22.8974 6.80637 22.181 6.71779C21.3686 6.62273 20.5515 6.57196 19.7335 6.56569C17.8822 6.57424 16.418 7.09647 15.341 8.13241C14.2639 9.16805 13.7137 10.6664 13.6904 12.6275V15.9523H10.1904V20.3273H13.6904V31.4603C9.74574 30.7933 6.6423 29.0536 4.21918 26.2415C1.79605 23.4293 0.543677 20.0378 0.461914 16.067C0.494627 13.1647 1.19928 10.543 2.57589 8.20184C3.91919 5.89407 5.83207 3.96951 8.13162 2.61218C10.4588 1.22748 13.0648 0.518535 15.9494 0.485352Z" fill="#1F2937"/>
</svg>
