<svg width="32" height="32" viewBox="0 0 32 32" fill="none" xmlns="http://www.w3.org/2000/svg">
<path fill-rule="evenodd" clip-rule="evenodd" d="M16.0002 12.5006C18.1639 12.5006 19.918 14.2275 19.918 16.3578C19.918 18.4876 18.1639 20.2145 16.0002 20.2145C13.8365 20.2145 12.0824 18.4876 12.0824 16.3578C12.0824 14.2275 13.8365 12.5006 16.0002 12.5006ZM16.0002 10.9583C12.971 10.9583 10.5153 13.3756 10.5153 16.3578C10.5153 19.3395 12.971 21.7573 16.0002 21.7573C19.0294 21.7573 21.4851 19.3395 21.4851 16.3578C21.4851 13.3756 19.0294 10.9583 16.0002 10.9583ZM21.6544 9.66028C21.3503 9.66504 21.0544 9.75957 20.8039 9.93199C20.5533 10.1044 20.3593 10.347 20.2462 10.6294C20.1332 10.9117 20.106 11.2212 20.1683 11.5189C20.2305 11.8166 20.3794 12.0893 20.5961 12.3026C20.8129 12.516 21.0878 12.6606 21.3865 12.7181C21.6851 12.7757 21.9941 12.7438 22.2747 12.6263C22.5552 12.5088 22.7947 12.311 22.9632 12.0578C23.1317 11.8046 23.2216 11.5072 23.2216 11.2031C23.2183 10.7907 23.0514 10.3965 22.7575 10.1072C22.4636 9.81784 22.0668 9.65709 21.6544 9.66028ZM12.1716 7.9812H19.8288C22.3198 7.9812 24.3392 9.96918 24.3392 12.4211V20.294C24.3392 22.7464 22.3198 24.734 19.8288 24.734H12.1716C9.68057 24.734 7.66116 22.7464 7.66116 20.294V12.4211C7.66116 9.96918 9.68053 7.9812 12.1716 7.9812ZM11.4494 6.44568C8.4885 6.44568 6.08817 8.8088 6.08817 11.7235V20.9917C6.08817 23.9068 8.48847 26.2695 11.4494 26.2695H20.551C23.5119 26.2695 25.9122 23.9068 25.9122 20.9917V11.7235C25.9122 8.80878 23.5119 6.44568 20.551 6.44568H11.4494ZM16.0002 0.870117C24.5537 0.870117 31.4877 7.80387 31.4877 16.3578C31.4877 24.9113 24.5537 31.845 16.0002 31.845C7.44666 31.845 0.512695 24.9113 0.512695 16.3578C0.512695 7.80389 7.44666 0.870117 16.0002 0.870117Z" fill="#1F2937"/>
</svg>
