<svg width="32" height="32" viewBox="0 0 32 32" fill="none" xmlns="http://www.w3.org/2000/svg">
<path fill-rule="evenodd" clip-rule="evenodd" d="M15.9084 0.503906C7.36305 0.503906 0.420898 7.44622 0.420898 15.9916C0.420898 24.5369 7.36306 31.4788 15.9084 31.4788C24.4537 31.4788 31.3959 24.5369 31.3959 15.9916C31.3959 7.4462 24.4538 0.503906 15.9084 0.503906ZM25.1797 20.9976C25.0739 21.2548 24.5747 21.6175 22.8203 21.8901C22.6691 21.92 22.6237 22.1016 22.5329 22.4951C22.5048 22.6379 22.4694 22.7792 22.4271 22.9185C22.3817 23.0544 22.3061 23.115 22.17 23.115H22.1548C22.0217 23.1119 21.8895 23.0915 21.7616 23.0544C21.4121 22.9907 21.058 22.9554 20.7029 22.9488C20.4495 22.947 20.1965 22.9671 19.9466 23.0091C19.4172 23.1001 18.9786 23.4175 18.4947 23.7503C17.8141 24.2344 17.1032 24.7334 15.9991 24.7334H15.7572C14.653 24.7334 13.9422 24.2344 13.2616 23.7503C12.7928 23.4175 12.339 23.1001 11.8097 23.0091C11.5598 22.9671 11.3068 22.947 11.0534 22.9488C10.6974 22.955 10.3429 22.9955 9.9947 23.0698C9.86562 23.1013 9.73402 23.1215 9.60142 23.13C9.53976 23.1368 9.47778 23.1204 9.4275 23.0841C9.37721 23.0478 9.34218 22.9941 9.32921 22.9335C9.28382 22.7822 9.25358 22.631 9.2233 22.4951C9.14768 22.132 9.08723 21.92 8.93598 21.8901C7.18149 21.6175 6.68242 21.2548 6.57651 20.9976C6.5594 20.9594 6.54917 20.9185 6.54629 20.8767C6.54526 20.8293 6.56161 20.7831 6.59225 20.7469C6.62289 20.7107 6.66571 20.687 6.71265 20.6802C9.40483 20.2264 10.6148 17.4737 10.6601 17.3528H10.6753C10.8417 17.02 10.8719 16.7175 10.766 16.4906C10.5845 16.0518 9.97954 15.8553 9.58632 15.7343C9.49411 15.7086 9.40326 15.6782 9.31411 15.6433C8.51248 15.3259 8.45198 15.0085 8.48223 14.8418C8.54269 14.5547 8.90569 14.3578 9.22329 14.3578C9.29643 14.3567 9.36884 14.3724 9.43505 14.4035C9.79805 14.5697 10.1157 14.6602 10.3879 14.6602C10.7811 14.6602 10.9475 14.494 10.9626 14.4791C10.9626 14.2975 10.9475 14.101 10.9324 13.904C10.8568 12.6338 10.7509 11.0457 11.1593 10.1383C12.3692 7.43082 14.9253 7.21933 15.6815 7.21933H16.0596C16.8159 7.21933 19.387 7.43082 20.597 10.1383C21.0053 11.0458 20.8995 12.6338 20.8239 13.904V13.9647C20.8087 14.1309 20.7936 14.3125 20.7936 14.4791C20.8087 14.494 20.96 14.6453 21.3078 14.6602C21.5801 14.6453 21.8826 14.5547 22.2153 14.4035C22.3061 14.3644 22.4038 14.3438 22.5027 14.3428C22.6128 14.3446 22.7212 14.3704 22.8203 14.4184H22.8354C23.0925 14.509 23.274 14.706 23.274 14.9025C23.2891 15.0841 23.1379 15.3712 22.4421 15.6433C22.3665 15.6737 22.2758 15.704 22.185 15.7343C21.7766 15.8553 21.1717 16.0518 20.9902 16.4906C20.8843 16.7175 20.9146 17.02 21.0809 17.3528H21.096C21.1414 17.4737 22.3514 20.2264 25.0436 20.6802C25.0905 20.687 25.1333 20.7107 25.164 20.7469C25.1946 20.7831 25.211 20.8293 25.2099 20.8767C25.2071 20.9185 25.1968 20.9594 25.1797 20.9976H25.1797Z" fill="#1F2937"/>
</svg>
